<?xml version="1.0" encoding="UTF-8" standalone="no"?>
<!-- Created with Inkscape (http://www.inkscape.org/) -->

<svg
   width="300"
   height="300"
   viewBox="0 0 79.374998 79.375002"
   version="1.1"
   id="svg5"
   inkscape:version="1.1.2 (0a00cf5, 2022-02-04)"
   sodipodi:docname="onlive.svg"
   inkscape:export-filename="/home/yosvani/Develop/TODO/Onlive.site Add-in/assets/icon-16.png"
   inkscape:export-xdpi="5.1199999"
   inkscape:export-ydpi="5.1199999"
   xmlns:inkscape="http://www.inkscape.org/namespaces/inkscape"
   xmlns:sodipodi="http://sodipodi.sourceforge.net/DTD/sodipodi-0.dtd"
   xmlns="http://www.w3.org/2000/svg"
   xmlns:svg="http://www.w3.org/2000/svg">
  <sodipodi:namedview
     id="namedview7"
     pagecolor="#ffffff"
     bordercolor="#666666"
     borderopacity="1.0"
     inkscape:pageshadow="2"
     inkscape:pageopacity="0.0"
     inkscape:pagecheckerboard="0"
     inkscape:document-units="px"
     showgrid="false"
     units="px"
     inkscape:zoom="0.6437866"
     inkscape:cx="155.33097"
     inkscape:cy="295.90551"
     inkscape:window-width="1366"
     inkscape:window-height="700"
     inkscape:window-x="1280"
     inkscape:window-y="256"
     inkscape:window-maximized="1"
     inkscape:current-layer="layer2" />
  <defs
     id="defs2" />
  <g
     inkscape:groupmode="layer"
     id="layer2"
     inkscape:label="Layer 2">
    <circle
       style="opacity:1;fill:#333333;fill-opacity:1;stroke:none;stroke-width:0;stroke-linecap:round;stroke-linejoin:round;stroke-miterlimit:4;stroke-dasharray:none;stroke-opacity:1;paint-order:markers fill stroke"
       id="path79113"
       cx="39.6875"
       cy="39.6875"
       r="39.6875" />
    <g
       id="g49451"
       style="opacity:1"
       transform="matrix(0.87200082,0,0,0.87200082,5.0930044,5.085634)">
      <path
         style="fill:#ffffff;fill-opacity:1;stroke:none;stroke-width:0.264583px;stroke-linecap:butt;stroke-linejoin:miter;stroke-opacity:1"
         d="M 27.660276,7.7596492 C 35.077779,4.4169864 44.191732,31.47414 44.191732,31.47414 c 0,0 0.2964,-24.425638 13.287074,-22.7763536 9.292622,1.179783 -2.127699,29.0290996 -0.369422,32.1051476 8.412239,14.716938 2.601699,24.053797 2.601699,24.053797 -14.375265,7.654215 -20.904899,6.302364 -33.645277,4.534433 0,0 -3.760348,-7.802582 -10.149329,-20.945996 C 12.658439,41.74273 30.913701,41.830124 29.219854,35.951246 27.177176,28.86167 20.147189,11.145386 27.660276,7.7596492 Z"
         id="path44325"
         sodipodi:nodetypes="scssccsss" />
      <g
         id="g32071"
         style="fill:#3f9191;fill-opacity:1;stroke:#000000;stroke-opacity:1"
         transform="matrix(1.1699657,0,0,1.1699657,-0.42204208,-27.934352)">
        <g
           id="path25937"
           style="stroke:#000000;stroke-opacity:1">
          <path
             style="color:#000000;fill:#000000;fill-opacity:1;stroke:#000000;stroke-linecap:round;stroke-linejoin:round;stroke-opacity:1;-inkscape-stroke:none"
             d="m 46.597656,29.216797 c -2.628137,-0.0047 -4.782318,1.425058 -6.027344,3.349609 -1.245025,1.924552 -2.019353,4.252757 -2.234375,6.744141 -0.291142,3.373354 0.546496,13.250546 0.363292,15.757814 -0.550247,-1.899569 -2.252577,-11.829628 -2.962901,-14.109377 -0.904324,-2.902381 -1.972627,-5.785744 -3.708984,-7.96289 -0.868179,-1.088573 -1.941414,-2.018763 -3.285157,-2.525391 -1.343742,-0.506628 -2.91083,-0.522242 -4.457031,-0.01758 -3.537784,1.154697 -5.407695,3.974686 -5.566406,6.841797 -0.158711,2.867111 0.894643,5.75119 2.095703,8.43164 1.201061,2.680451 2.618632,5.170798 3.398438,6.833985 0.187292,0.399461 0.180072,0.448691 0.27539,0.720703 -0.658444,0.03979 -1.304126,0.160803 -1.910156,0.419922 -1.92575,0.82339 -3.143046,2.976248 -3.025391,5.417969 -0.865269,-0.09253 -1.739486,-0.05494 -2.537109,0.226562 -2.145445,0.757184 -3.985602,2.910684 -3.914062,5.691406 0.06197,2.408662 0.897004,4.754956 1.99414,6.746094 1.097136,1.991139 2.437241,3.77926 3.541425,4.875835 0.722376,1.871498 1.946162,4.655425 3.833577,6.21791 2.945463,2.800232 8.490835,4.69693 18.318359,2.841797 4.913682,-0.927552 9.819982,-4.152796 12.671875,-8.566406 2.851894,-4.41361 3.330279,-10.418351 -1.060546,-15.416016 -0.616152,-0.701308 -1.393928,-1.183847 -2.125,-1.732422 -0.113347,-0.298029 -0.301717,-0.561747 -0.546875,-0.765625 0.285546,0.235191 0.0519,0.128938 0.07813,-0.654297 0.02623,-0.783234 0.23364,-1.992116 0.566406,-3.396484 0.665531,-2.808736 1.798105,-6.430036 2.644531,-10.029297 0.846426,-3.599261 1.472682,-7.159923 0.833984,-10.257812 -0.319348,-1.548945 -1.019415,-3.038381 -2.285156,-4.097657 -1.26574,-1.059275 -2.986412,-1.582399 -4.96875,-1.585937 z m 0.442467,3.217443 c 1.722653,0.329315 4.330873,0.73531 4.984934,3.620021 0.699441,7.119264 -2.297316,16.021947 -2.823257,17.732522 -0.383188,1.269966 -1.112186,4.421248 -1.207059,5.490302 -3.184882,-1.199274 -8.338829,-2.117527 -10.959573,-1.925265 -2.1009,0.154125 -5.39216,1.480621 -6.501093,2.730962 -0.960874,-3.690549 -2.010512,-5.545659 -3.949269,-5.515406 0.0611,-1.218311 -0.183028,-2.540426 -0.817294,-3.563261 -0.898914,-1.917225 -1.937004,-3.888456 -3.040314,-6.350754 -1.10331,-2.462297 -2.001352,-3.703667 -1.905321,-5.438462 0.09603,-1.734795 0.492894,-3.491899 4.61368,-5.24029 3.523616,-1.366242 4.587082,-0.0476 5.425612,0.988601 2.840864,4.477068 4.294881,10.578753 5.208144,14.196194 0.796746,3.136635 0.891852,5.75175 2.629916,5.908957 1.984358,-3.301756 0.806318,-14.362352 2.900139,-19.842711 0.520997,-1.65741 2.319896,-3.111178 5.440755,-2.79141 z M 28.094337,58.269033 c 1.498103,1.895915 4.209214,7.614151 4.209214,7.614151 0,0 2.069793,3.660594 -1.489003,5.241723 -2.426096,0.711128 -3.56419,0.243389 -5.029101,-1.871064 -1.169824,-1.539155 -3.553769,-6.014039 -4.233752,-9.284536 -0.294558,-1.529063 1.810162,-2.574837 2.48152,-2.861889 1.146871,-0.319732 2.911204,-0.341749 4.061122,1.161615 z m 9.391438,1.295273 c 4.216923,-0.01423 10.453088,0.488936 13.168791,3.579968 3.414634,3.886558 3.395746,9.044573 1.251106,12.515035 -3.467571,5.611232 -6.736834,7.180447 -11.588606,8.271621 -9.16039,2.060194 -13.916337,-1.418361 -15.812301,-3.22084 -1.559804,-1.482895 -1.243294,-3.323184 -1.291862,-3.83509 0.429185,-0.08446 0.876654,-0.07586 1.28125,-0.232422 1.525343,-0.590249 2.94028,-1.841252 3.412109,-3.621094 1.330301,0.426534 2.725879,0.46366 3.960937,-0.03516 0.339643,-0.137175 0.605117,-0.42916 0.921875,-0.628906 -0.69787,2.79339 -0.870674,5.43957 1.554688,7.128906 -1.321928,-4.738344 0.06359,-7.353957 2.340324,-8.631562 2.554103,-1.20062 5.08545,-1.235529 8.015133,1.207743 -1.290333,-3.059614 -2.924253,-4.265609 -5.660157,-4.134766 0,0 -2.443241,0.555582 -2.93348,0.528542 -0.662976,-0.03571 -1.497613,-1.063239 -2.149353,-1.78816 -0.65174,-0.724921 -1.183125,-1.800892 -1.354669,-2.761336 -0.171545,-0.960444 -0.04154,-2.129115 0.331567,-2.667424 0.56174,-0.954714 1.934067,-1.405179 4.552648,-1.675055 z M 20.57979,63.299164 c 1.305452,1.29485 5.905189,7.767374 5.802766,9.721781 -0.401635,1.767381 -1.901715,2.446539 -2.705657,2.759973 -0.798915,0.311474 -2.728684,0.692243 -4.001922,-0.393401 -2.36124,-2.042164 -4.413556,-6.006685 -4.533946,-9.065796 -0.03088,-1.200154 0.473958,-2.962928 2.166741,-3.663076 1.444746,-0.472854 2.389635,-0.277617 3.272018,0.640519 z"
             id="path37625"
             sodipodi:nodetypes="ssscssscssscscsssccsssccsssssssccccscccssccccccccccccccsssscscsccccccssccccscccc" />
        </g>
      </g>
    </g>
  </g>
</svg>
